#!OML:ASF E:\Mandelcareful walks\Project 1\Capture day 1\Session 1\Subject1.ASF
:FULLY-SPECIFIED
:DEGREES
803
root 11.7458 8.79669 1.83353 225.09 -81.3724 -203.609
lowerback 31.4298 -2.48517 -2.97295
upperback 9.75475 -4.92597 1.28373
thorax -5.72074 -2.81041 4.90236
lowerneck -17.0772 -21.3414 -19.7159
upperneck -3.02876 -27.6438 29.8578
head 9.20719 -12.695 7.75618
rclavicle -8.74653e-015 -2.18663e-014
rhumerus 38.2608 5.35359 -48.8062
rradius 130.443
rwrist -9.12435
rhand -39.4974 2.07783
rfingers 7.12502
rthumb -12.4832 -27.5293
lclavicle -8.74653e-015 -2.18663e-014
lhumerus 31.5849 -3.70412 33.2406
lradius 129.906
lwrist 15.8445
lhand -45.2769 -63.0967
lfingers 7.12502
lthumb -18.05 -33.9143
rfemur -111.536 -51.2343 13.5697
rtibia 119.365
rfoot -19.7753 4.27213
rtoes -17.852
lfemur -118.492 28.999 -30.6286
ltibia 129.396
lfoot -28.5825 -0.902
ltoes -8.76984
804
root 11.7347 8.825 1.8372 223.573 -81.1748 -201.986
lowerback 31.3026 -2.61197 -2.90037
upperback 9.73712 -5.05738 1.31789
thorax -5.67275 -2.87443 4.93397
lowerneck -17.5973 -21.343 -19.441
upperneck -2.68408 -27.6968 29.7774
head 9.35896 -12.6588 7.64333
rclavicle 7.39479e-014 -7.15625e-015
rhumerus 38.3898 5.38714 -48.9956
rradius 130.249
rwrist -9.15317
rhand -39.1682 2.57835
rfingers 7.12502
rthumb -12.1659 -27.0479
lclavicle 7.39479e-014 -7.15625e-015
lhumerus 31.3896 -3.60337 33.128
lradius 129.897
lwrist 16.5384
lhand -44.2808 -63.2003
lfingers 7.12502
lthumb -17.0915 -33.9321
rfemur -111.37 -50.764 13.6615
rtibia 119.09
rfoot -19.7976 4.02947
rtoes -18.549
lfemur -118.284 29.2849 -30.3867
ltibia 129.305
lfoot -28.8164 -1.26498
ltoes -7.47652
805
root 11.7252 8.84959 1.83522 221.84 -80.7519 -200.101
lowerback 30.9983 -2.51292 -3.08786
upperback 9.86526 -4.99002 1.41002
thorax -5.36935 -2.86588 5.08962
lowerneck -18.3034 -21.3535 -19.0724
upperneck -2.50459 -27.7029 29.5841
head 9.43426 -12.6078 7.48648
rclavicle 1.39149e-014 -6.32135e-014
rhumerus 38.9311 5.00743 -48.9673
rradius 129.842
rwrist -9.313
rhand -38.9323 2.2872
rfingers 7.12502
rthumb -11.9384 -27.3524
lclavicle 1.39149e-014 -6.32135e-014
lhumerus 31.4633 -3.77403 32.8828
lradius 129.755
lwrist 15.8607
lhand -44.9097 -63.3479
lfingers 7.12502
lthumb -17.6967 -34.1332
rfemur -111.506 -50.0662 13.8343
rtibia 118.881
rfoot -19.7295 3.80653
rtoes -18.8781
lfemur -118.295 29.7647 -30.3744
ltibia 129.185
lfoot -28.8922 -1.23102
ltoes -7.52839
806
root 11.7165 8.87586 1.83726 220.506 -80.3662 -198.639
lowerback 30.5923 -2.35832 -3.13558
upperback 10.0376 -4.81125 1.5187
thorax -4.99209 -2.80788 5.13744
lowerneck -18.5752 -21.3365 -18.7978
upperneck -2.73451 -27.6275 29.4239
head 9.30704 -12.5859 7.40866
rclavicle -1.07344e-013 1.03368e-014
rhumerus 38.6928 4.7839 -48.8721
rradius 129.993
rwrist -9.29731
rhand -38.7034 1.42962
rfingers 7.12502
rthumb -11.7177 -28.2227
lclavicle -1.07344e-013 1.03368e-014
lhumerus 31.9078 -4.21897 32.6218
lradius 129.491
lwrist 14.5912
lhand -46.5722 -62.9443
lfingers 7.12502
lthumb -19.296 -33.8816
rfemur -111.552 -49.5212 13.9568
rtibia 118.66
rfoot -19.6732 3.73843
rtoes -18.9131
lfemur -118.13 29.9105 -30.1618
ltibia 129.005
lfoot -28.9343 -0.763746
ltoes -8.51039
807
root 11.7049 8.90589 1.84767 220.286 -80.0626 -198.193
lowerback 30.5958 -2.35174 -3.20411
upperback 9.80381 -4.78839 1.64991
thorax -5.24198 -2.77695 5.3304
lowerneck -19.139 -21.2424 -18.4911
upperneck -2.33611 -27.4509 28.7743
head 9.30098 -12.4533 7.19003
rclavicle 3.18055e-015 0
rhumerus 38.1941 4.96626 -48.7643
rradius 130.048
rwrist -9.53639
rhand -38.6496 1.88811
rfingers 7.12502
rthumb -11.6658 -27.7671
lclavicle 3.18055e-015 0
lhumerus 31.8346 -4.56417 32.91
lradius 129.492
lwrist 15.3477
lhand -45.9843 -62.1536
lfingers 7.12502
lthumb -18.7306 -33.0354
rfemur -111.648 -49.2807 14.0895
rtibia 118.365
rfoot -19.6175 3.8132
rtoes -18.6883
lfemur -117.839 29.5096 -29.7405
ltibia 128.757
lfoot -28.9224 -0.0218605
ltoes -9.21519
808
root 11.6955 8.93013 1.85367 220.715 -79.6589 -198.423
lowerback 30.6115 -2.40238 -3.35161
upperback 9.59055 -4.87274 1.65045
thorax -5.46904 -2.79681 5.45721
lowerneck -19.8571 -21.1075 -18.5068
upperneck -1.77924 -27.2198 28.4628
head 9.48379 -12.2539 7.12188
rclavicle 5.1684e-015 5.1684e-015
rhumerus 37.8303 5.10955 -48.9225
rradius 130.111
rwrist -10.0296
rhand -38.3618 2.25333
rfingers 7.12502
rthumb -11.3882 -27.4174
lclavicle 5.1684e-015 5.1684e-015
lhumerus 31.6017 -5.00177 32.992
lradius 129.417
lwrist 15.3197
lhand -45.9888 -61.0622
lfingers 7.12502
lthumb -18.7349 -31.9444
rfemur -111.876 -49.0734 14.0678
rtibia 118.141
rfoot -19.5389 4.05417
rtoes -18.5249
lfemur -117.506 29.3064 -29.7324
ltibia 128.592
lfoot -29.0836 0.512322
ltoes -9.49785
